<mxfile host="app.diagrams.net" modified="2024-01-17T04:50:17.164Z" agent="Mozilla/5.0 (Windows NT 10.0; Win64; x64) AppleWebKit/537.36 (KHTML, like Gecko) Chrome/114.0.0.0 Safari/537.36 Edg/114.0.1823.82" etag="CstmX-FL9-6AcOuJBXyt" version="22.1.20" type="github">
  <diagram name="Page-1" id="e7e014a7-5840-1c2e-5031-d8a46d1fe8dd">
    <mxGraphModel dx="1188" dy="660" grid="1" gridSize="10" guides="1" tooltips="1" connect="1" arrows="1" fold="1" page="1" pageScale="1" pageWidth="1169" pageHeight="826" background="none" math="0" shadow="0">
      <root>
        <mxCell id="0" />
        <mxCell id="1" parent="0" />
        <mxCell id="lyp4gP9zrbUmcJkZ58aL-42" value="轴时间" style="text;whiteSpace=wrap;" vertex="1" parent="1">
          <mxGeometry x="720" y="370" width="70" height="40" as="geometry" />
        </mxCell>
        <mxCell id="lyp4gP9zrbUmcJkZ58aL-43" value="&lt;a href=&quot;https://app.diagrams.net/?libs=general;uml&amp;amp;src=about#Hlojokerol%2FUML%2Fmain%2FUML.drawio&quot;&gt;UML.drawio - draw.io (diagrams.net)&lt;/a&gt;" style="text;whiteSpace=wrap;html=1;" vertex="1" parent="1">
          <mxGeometry x="240" y="280" width="230" height="40" as="geometry" />
        </mxCell>
      </root>
    </mxGraphModel>
  </diagram>
</mxfile>
